<svg width="194" height="39" viewBox="0 0 194 39" fill="none" xmlns="http://www.w3.org/2000/svg">
<path d="M138.977 7.53096L164.495 25.7065C164.495 25.7065 168.611 17.4449 166.141 11.9371C163.672 6.42935 160.379 2.29859 152.147 1.74781C143.916 1.19704 138.977 7.53096 138.977 7.53096Z" fill="url(#paint0_linear_478_32)"/>
<path d="M168.08 22.8345C168.08 22.8345 170.846 26.4869 169.545 28.2773C169.265 28.6627 167.803 29.1342 167.803 29.1342C167.803 29.1342 137.229 8.56906 132.861 4.28467C129.367 2.57092 130.241 5.14155 130.241 5.14155C138.977 12.8535 153.2 23.5591 168.08 32.3368C168.651 32.6736 169.784 33.2308 170.424 33.4186C171.77 33.8135 172.093 33.5826 173.039 32.5617C174.187 31.3237 173.487 29.8918 173.039 28.2773C172.276 25.5265 168.08 22.8345 168.08 22.8345Z" fill="url(#paint1_linear_478_32)"/>
<path d="M138.977 4.2844L131.115 3.42752C127.621 3.42752 129.368 5.14128 129.368 5.14128C129.368 5.14128 144.218 19.7082 168.672 33.4183C168.672 33.4183 164.304 33.4183 159.063 30.8477C153.822 28.277 138.101 16.2807 138.101 16.2807C138.101 16.2807 124.865 4.58644 125.001 2.97566C125.098 1.82932 124.97 1.35739 125.995 0.663815C127.115 -0.095028 128.387 -0.0935612 129.77 0.130192C131.697 0.442013 138.977 4.2844 138.977 4.2844Z" fill="url(#paint2_linear_478_32)"/>
<path d="M135.51 15.4243L156.447 30.8039C156.447 30.8039 146.192 31.5452 140.495 26.959C134.798 22.3728 135.51 15.4243 135.51 15.4243Z" fill="url(#paint3_linear_478_32)"/>
<path d="M2 4V25H5V16H23V25H26V4H23V13H5V4H2Z" fill="black"/>
<path fill-rule="evenodd" clip-rule="evenodd" d="M28 25H31.5L34 20.0002H49L51.5 25H55L44 4H39L28 25ZM47.5 17.0002H35.5L41 7.00024H42L47.5 17.0002Z" fill="black"/>
<path fill-rule="evenodd" clip-rule="evenodd" d="M56 4V25H74C80.5 25 82 17.0005 77 14.5002C84.5 7.00024 74 4.00024 74 4.00024L56 4ZM59 13.0002V7.00024H73C77.5 7.00024 77.5967 13.0002 73 13.0002H59ZM59 22.0002V16.0002H73C78.5 16.0002 78.4673 22.0002 73 22.0002H59Z" fill="black"/>
<path d="M83 4V25L88 25.0002L106 7.00024V25.0002L109 25V4H104L86 22.5002V4H83Z" fill="black"/>
<path d="M112 4.00024V25H115V15.5002H118L131 25L136 25.0002L121 14.0002L136 4.00024H131L118 12.0002H115V4.00024H112Z" fill="black"/>
<path d="M168 4V25H171V16.0002H189V25L192 25.0002V4H189V13.0002H171V4H168Z" fill="black"/>
<path d="M56 25V4L74 4.00024C74 4.00024 84.5 7.00024 77 14.5002C82 17.0005 80.5 25 74 25M56 25C56 25 67.5 25 74 25M56 25H74M2 4V25H5V16H23V25H26V4H23V13H5V4H2ZM28 25H31.5L34 20.0002H49L51.5 25H55L44 4H39L28 25ZM35.5 17.0002H47.5L42 7.00024H41L35.5 17.0002ZM59 7.00024V13.0002H73C77.5967 13.0002 77.5 7.00024 73 7.00024H59ZM59 16.0002V22.0002H73C78.4673 22.0002 78.5 16.0002 73 16.0002H59ZM83 4V25L88 25.0002L106 7.00024V25.0002L109 25V4H104L86 22.5002V4H83ZM112 4.00024V25H115V15.5002H118L131 25L136 25.0002L121 14.0002L136 4.00024H131L118 12.0002H115V4.00024H112ZM168 4V25H171V16.0002H189V25L192 25.0002V4H189V13.0002H171V4H168Z" stroke="black"/>
<path d="M6.54398 37.0002H0.642263V30.5728H1.79285V35.9488H6.54398V37.0002ZM12.4597 37.0002H6.30014V30.5728H12.4597V31.6341H7.44081V33.2212H12.2812V34.2726H7.44081V35.9488H12.4597V37.0002ZM20.9029 37.0002H19.6134L18.8794 35.6215H14.5846L13.8605 37.0002H12.5611L15.9434 30.5728H17.5205L20.9029 37.0002ZM18.3636 34.58L16.7865 31.5449H16.6873L15.1103 34.58H18.3636ZM28.0851 37.0002H26.9445V35.3736C26.9445 35.1686 26.842 35.0099 26.637 34.8974C26.4651 34.8049 26.27 34.7586 26.0518 34.7586H21.7966V37.0002H20.6559V30.5728H26.3295C26.9048 30.5728 27.3512 30.7844 27.6686 31.2076C27.9463 31.5846 28.0851 32.0706 28.0851 32.6657C28.0851 33.5253 27.8768 34.0543 27.4603 34.2527C27.8768 34.4577 28.0851 34.8313 28.0851 35.3736V37.0002ZM26.9445 32.6657C26.9445 32.2954 26.8717 32.0309 26.7263 31.8722C26.5808 31.7135 26.3262 31.6341 25.9625 31.6341H21.7966V33.6973H25.9625C26.3394 33.6973 26.5973 33.6212 26.7362 33.4691C26.875 33.3104 26.9445 33.0426 26.9445 32.6657ZM36.4502 37.0002H34.883L29.7549 31.7631V37.0002H28.6143V30.5728H30.1319L35.2996 35.8596V30.5728H36.4502V37.0002ZM38.3595 30.8803H37.2089V29.6405H38.3595V30.8803ZM38.3595 37.0002H37.2089V31.9516H38.3595V37.0002ZM46.7751 37.0002H45.208L40.0799 31.7631V37.0002H38.9392V30.5728H40.4568L45.6245 35.8596V30.5728H46.7751V37.0002ZM54.7052 34.5602C54.7052 35.4066 54.5498 36.0216 54.239 36.4051C53.9613 36.7424 53.5216 36.954 52.9198 37.0399C52.609 37.0862 51.9445 37.1094 50.9261 37.1094C49.8417 37.1094 49.0746 37.0465 48.625 36.9209C48.0695 36.7622 47.6827 36.4481 47.4645 35.9786C47.2462 35.5091 47.1371 34.7586 47.1371 33.727C47.1371 32.7153 47.2495 31.9846 47.4744 31.535C47.7058 31.0853 48.1059 30.791 48.6746 30.6522C49.0978 30.5398 49.8483 30.4836 50.9261 30.4836C52.5396 30.4836 53.5612 30.6092 53.9911 30.8605C54.4672 31.1382 54.7052 31.7929 54.7052 32.8244H53.5645C53.5645 32.3152 53.4323 31.9582 53.1678 31.7532C52.9628 31.5945 52.6388 31.5118 52.1957 31.5052C53.9349 31.5317 53.5116 31.5449 50.9261 31.5449C49.9607 31.5449 49.3854 31.5614 49.2003 31.5945C48.8167 31.654 48.5688 31.8292 48.4563 32.1202C48.3439 32.4045 48.2877 32.96 48.2877 33.7865C48.2877 34.6131 48.3406 35.1653 48.4464 35.443C48.5654 35.7472 48.8167 35.9323 49.2003 35.9984C49.4052 36.0381 49.9805 36.058 50.9261 36.058C52.8306 36.058 53.2736 36.0679 52.2553 36.0877C52.6983 36.0811 53.0157 35.9885 53.2075 35.81C53.4455 35.5984 53.5645 35.2182 53.5645 34.6693H50.5691V33.608H54.7052V34.5602ZM70.5194 37.0002H69.3788V31.6341L65.8972 37.0002H65.2128L61.7313 31.6341L61.7214 37.0002H60.5807V30.5728H62.4058L65.5501 35.5818L68.6944 30.5728H70.5194V37.0002ZM78.9283 37.0002H77.6388L76.9048 35.6215H72.61L71.8859 37.0002H70.5865L73.9689 30.5728H75.546L78.9283 37.0002ZM76.3891 34.58L74.812 31.5449H74.7128L73.1357 34.58H76.3891ZM86.547 37.0002H84.9798L79.8518 31.7631V37.0002H78.7111V30.5728H80.2287L85.3964 35.8596V30.5728H86.547V37.0002ZM95.0325 37.0002H93.7431L93.0091 35.6215H88.7142L87.9902 37.0002H86.6908L90.0731 30.5728H91.6502L95.0325 37.0002ZM92.4933 34.58L90.9162 31.5449H90.817L89.2399 34.58H92.4933ZM102.116 34.5602C102.116 35.4066 101.96 36.0216 101.649 36.4051C101.372 36.7424 100.932 36.954 100.33 37.0399C100.019 37.0862 99.3549 37.1094 98.3366 37.1094C97.2521 37.1094 96.485 37.0465 96.0354 36.9209C95.4799 36.7622 95.0931 36.4481 94.8749 35.9786C94.6567 35.5091 94.5476 34.7586 94.5476 33.727C94.5476 32.7153 94.66 31.9846 94.8848 31.535C95.1162 31.0853 95.5163 30.791 96.085 30.6522C96.5082 30.5398 97.2587 30.4836 98.3366 30.4836C99.95 30.4836 100.972 30.6092 101.401 30.8605C101.878 31.1382 102.116 31.7929 102.116 32.8244H100.975C100.975 32.3152 100.843 31.9582 100.578 31.7532C100.373 31.5945 100.049 31.5118 99.6062 31.5052C101.345 31.5317 100.922 31.5449 98.3366 31.5449C97.3711 31.5449 96.7958 31.5614 96.6107 31.5945C96.2272 31.654 95.9792 31.8292 95.8668 32.1202C95.7544 32.4045 95.6981 32.96 95.6981 33.7865C95.6981 34.6131 95.751 35.1653 95.8568 35.443C95.9759 35.7472 96.2272 35.9323 96.6107 35.9984C96.8157 36.0381 97.391 36.058 98.3366 36.058C100.241 36.058 100.684 36.0679 99.6657 36.0877C100.109 36.0811 100.426 35.9885 100.618 35.81C100.856 35.5984 100.975 35.2182 100.975 34.6693H97.9795V33.608H102.116V34.5602ZM108.699 37.0002H102.54V30.5728H108.699V31.6341H103.68V33.2212H108.521V34.2726H103.68V35.9488H108.699V37.0002ZM119.305 37.0002H118.164V31.6341L114.683 37.0002H113.998L110.517 31.6341L110.507 37.0002H109.366V30.5728H111.191L114.336 35.5818L117.48 30.5728H119.305V37.0002ZM125.889 37.0002H119.729V30.5728H125.889V31.6341H120.87V33.2212H125.71V34.2726H120.87V35.9488H125.889V37.0002ZM134.312 37.0002H132.745L127.617 31.7631V37.0002H126.476V30.5728H127.994L133.161 35.8596V30.5728H134.312V37.0002ZM141.508 31.6341H138.731V37.0002H137.58V31.6341H134.813V30.5728H141.508V31.6341ZM153.206 36.7721C152.73 36.9837 151.758 37.0895 150.29 37.0895C148.697 37.0895 147.668 36.9077 147.205 36.544C146.828 36.2464 146.64 35.6083 146.64 34.6296H147.83C147.83 35.2578 147.946 35.6414 148.177 35.7802C148.415 35.9191 149.123 35.9885 150.3 35.9885C151.49 35.9885 152.218 35.9389 152.482 35.8397C152.793 35.7273 152.948 35.4926 152.948 35.1355C152.948 34.7652 152.846 34.5338 152.641 34.4412C152.443 34.342 151.732 34.2924 150.508 34.2924C149.001 34.2924 147.989 34.1072 147.473 33.7369C147.057 33.4328 146.848 32.917 146.848 32.1896C146.848 31.3961 147.096 30.877 147.592 30.6323C148.048 30.4075 149.021 30.2951 150.508 30.2951C151.983 30.2951 152.945 30.4736 153.395 30.8307C153.772 31.1283 153.96 31.7333 153.96 32.6459H152.79C152.79 32.0772 152.671 31.7267 152.433 31.5945C152.195 31.4622 151.553 31.3961 150.508 31.3961C149.622 31.3961 149.073 31.4093 148.862 31.4358C148.313 31.5151 148.039 31.7664 148.039 32.1896C148.039 32.5665 148.187 32.8277 148.485 32.9732C148.789 33.1187 149.573 33.1947 150.836 33.2013C152.145 33.2013 152.988 33.2873 153.365 33.4592C153.887 33.7105 154.149 34.2693 154.149 35.1355C154.149 35.9555 153.834 36.501 153.206 36.7721ZM162.374 30.5728L158.545 34.461V37.0002H157.405V34.461L153.576 30.5728H155.123L157.98 33.4791L160.827 30.5728H162.374ZM168.483 36.7721C168.007 36.9837 167.035 37.0895 165.567 37.0895C163.974 37.0895 162.945 36.9077 162.482 36.544C162.106 36.2464 161.917 35.6083 161.917 34.6296H163.107C163.107 35.2578 163.223 35.6414 163.455 35.7802C163.693 35.9191 164.4 35.9885 165.577 35.9885C166.767 35.9885 167.495 35.9389 167.759 35.8397C168.07 35.7273 168.226 35.4926 168.226 35.1355C168.226 34.7652 168.123 34.5338 167.918 34.4412C167.72 34.342 167.009 34.2924 165.785 34.2924C164.278 34.2924 163.266 34.1072 162.75 33.7369C162.334 33.4328 162.125 32.917 162.125 32.1896C162.125 31.3961 162.373 30.877 162.869 30.6323C163.326 30.4075 164.298 30.2951 165.785 30.2951C167.26 30.2951 168.222 30.4736 168.672 30.8307C169.049 31.1283 169.237 31.7333 169.237 32.6459H168.067C168.067 32.0772 167.948 31.7267 167.71 31.5945C167.472 31.4622 166.83 31.3961 165.785 31.3961C164.899 31.3961 164.351 31.4093 164.139 31.4358C163.59 31.5151 163.316 31.7664 163.316 32.1896C163.316 32.5665 163.464 32.8277 163.762 32.9732C164.066 33.1187 164.85 33.1947 166.113 33.2013C167.422 33.2013 168.265 33.2873 168.642 33.4592C169.164 33.7105 169.426 34.2693 169.426 35.1355C169.426 35.9555 169.112 36.501 168.483 36.7721ZM176.124 31.6341H173.346V37.0002H172.196V31.6341H169.428V30.5728H176.124V31.6341ZM182.152 37.0002H175.993V30.5728H182.152V31.6341H177.133V33.2212H181.974V34.2726H177.133V35.9488H182.152V37.0002ZM192.758 37.0002H191.617V31.6341L188.136 37.0002H187.451L183.97 31.6341L183.96 37.0002H182.819V30.5728H184.644L187.788 35.5818L190.933 30.5728H192.758V37.0002Z" fill="black"/>
<defs>
<linearGradient id="paint0_linear_478_32" x1="169.159" y1="23.2272" x2="136.973" y2="-0.619418" gradientUnits="userSpaceOnUse">
<stop stop-color="#49B8F7"/>
<stop offset="1" stop-color="#1273A9"/>
</linearGradient>
<linearGradient id="paint1_linear_478_32" x1="114.68" y1="0.143397" x2="172.333" y2="50.2038" gradientUnits="userSpaceOnUse">
<stop stop-color="#006EAB"/>
<stop offset="1" stop-color="#86D3FE"/>
</linearGradient>
<linearGradient id="paint2_linear_478_32" x1="116.458" y1="-5.56055" x2="168.445" y2="50.5399" gradientUnits="userSpaceOnUse">
<stop stop-color="#1670A2"/>
<stop offset="1" stop-color="#90D6FD"/>
</linearGradient>
<linearGradient id="paint3_linear_478_32" x1="92.3553" y1="-22.0956" x2="191.442" y2="60.7511" gradientUnits="userSpaceOnUse">
<stop stop-color="#005C8F"/>
<stop offset="1" stop-color="#6FC5F5"/>
</linearGradient>
</defs>
</svg>
