<svg width="165" height="38" viewBox="0 0 165 38" fill="none" xmlns="http://www.w3.org/2000/svg">
<path d="M0.0561568 37.8605C0.0187182 37.8605 0 37.8373 0 37.7908L0.0140392 28.2232C0.0140392 28.1767 0.0374375 28.1534 0.0842351 28.1534H1.64258C1.68938 28.1534 1.71278 28.1767 1.71278 28.2232L1.69874 36.145H4.59081C4.63761 36.145 4.66101 36.1683 4.66101 36.2148V37.7908C4.66101 37.8373 4.63761 37.8605 4.59081 37.8605H0.0561568ZM6.26795 37.8605C6.23051 37.8605 6.21179 37.8373 6.21179 37.7908L6.22583 28.2092C6.22583 28.172 6.24455 28.1534 6.28198 28.1534H10.7886C10.826 28.1534 10.8448 28.1767 10.8448 28.2232V29.7852C10.8448 29.8224 10.826 29.841 10.7886 29.841H7.91053V32.0167H10.7886C10.826 32.0167 10.8448 32.0353 10.8448 32.0725L10.8588 33.6485C10.8588 33.6857 10.8401 33.7043 10.8027 33.7043H7.91053V36.145H10.8027C10.8401 36.145 10.8588 36.1683 10.8588 36.2148V37.8047C10.8588 37.8419 10.8401 37.8605 10.8027 37.8605H6.26795ZM12.1244 37.7908L13.8653 28.2092C13.8747 28.172 13.8981 28.1534 13.9355 28.1534H15.9712C16.0087 28.1534 16.0321 28.172 16.0414 28.2092L17.712 37.7908C17.7215 37.8373 17.7027 37.8605 17.6559 37.8605H16.0975C16.0601 37.8605 16.0368 37.8373 16.0273 37.7908L15.8729 36.7727H13.9636L13.8091 37.7908C13.7998 37.8373 13.7765 37.8605 13.739 37.8605H12.1806C12.1432 37.8605 12.1244 37.8373 12.1244 37.7908ZM14.2444 35.2803H15.5921L15.0165 31.3612L14.9323 30.8452L14.8761 31.3612L14.2444 35.2803ZM19.2811 37.8605C19.2436 37.8605 19.225 37.8373 19.225 37.7908L19.253 28.2092C19.253 28.172 19.2717 28.1534 19.3092 28.1534H22.1451C22.6505 28.1534 23.1138 28.2789 23.535 28.53C23.9655 28.7717 24.3072 29.1018 24.5599 29.5202C24.8126 29.9293 24.9389 30.3942 24.9389 30.9149C24.9389 31.2589 24.8874 31.5704 24.7845 31.8494C24.6815 32.119 24.5599 32.3515 24.4195 32.5467C24.2791 32.7327 24.1527 32.8722 24.0404 32.9651C24.5458 33.523 24.7985 34.1785 24.7985 34.9317L24.8126 37.7908C24.8126 37.8373 24.7891 37.8605 24.7424 37.8605H23.1559C23.1184 37.8605 23.0998 37.8466 23.0998 37.8187V34.9317C23.0998 34.5969 22.978 34.3087 22.7348 34.0669C22.5007 33.8159 22.2106 33.6904 21.8643 33.6904H20.9377L20.9237 37.7908C20.9237 37.8373 20.905 37.8605 20.8676 37.8605H19.2811ZM20.9377 32.0167H22.1451C22.4352 32.0167 22.6926 31.9098 22.9173 31.696C23.1419 31.4821 23.2542 31.2218 23.2542 30.9149C23.2542 30.6174 23.1419 30.3617 22.9173 30.1478C22.702 29.934 22.4446 29.8271 22.1451 29.8271H20.9377V32.0167ZM26.7559 37.8605C26.681 37.8605 26.6436 37.828 26.6436 37.7629L26.6295 28.265C26.6295 28.1906 26.6669 28.1534 26.7419 28.1534H28.0054L30.378 33.6485L30.3078 28.265C30.3078 28.1906 30.3499 28.1534 30.4342 28.1534H31.824C31.8802 28.1534 31.9083 28.1906 31.9083 28.265L31.9223 37.7768C31.9223 37.8326 31.8988 37.8605 31.8521 37.8605H30.6167L28.1879 32.728L28.2862 37.749C28.2862 37.8233 28.244 37.8605 28.1598 37.8605H26.7559ZM33.8438 37.8605C33.7969 37.8605 33.7736 37.8373 33.7736 37.7908L33.7876 28.2092C33.7876 28.172 33.8064 28.1534 33.8438 28.1534H35.4162C35.4536 28.1534 35.4723 28.172 35.4723 28.2092L35.4864 37.7908C35.4864 37.8373 35.4676 37.8605 35.4302 37.8605H33.8438ZM37.4794 37.8605C37.4045 37.8605 37.3671 37.828 37.3671 37.7629L37.3531 28.265C37.3531 28.1906 37.3905 28.1534 37.4654 28.1534H38.7289L41.1015 33.6485L41.0313 28.265C41.0313 28.1906 41.0735 28.1534 41.1577 28.1534H42.5476C42.6037 28.1534 42.6318 28.1906 42.6318 28.265L42.6458 37.7768C42.6458 37.8326 42.6224 37.8605 42.5757 37.8605H41.3402L38.9114 32.728L39.0097 37.749C39.0097 37.8233 38.9676 37.8605 38.8833 37.8605H37.4794ZM47.0663 38C46.5609 38 46.1023 37.8745 45.6904 37.6234C45.2786 37.3724 44.9464 37.0377 44.6937 36.6192C44.4503 36.1915 44.3286 35.7173 44.3286 35.1967V30.7755C44.3286 30.2734 44.4503 29.8131 44.6937 29.3947C44.9464 28.967 45.2786 28.6276 45.6904 28.3766C46.1116 28.1255 46.5702 28 47.0663 28C47.581 28 48.0443 28.1255 48.4562 28.3766C48.8773 28.6183 49.2096 28.9484 49.4529 29.3668C49.6963 29.7852 49.818 30.2548 49.818 30.7755V31.417C49.818 31.4542 49.7946 31.4728 49.7478 31.4728H48.1754C48.138 31.4728 48.1192 31.4542 48.1192 31.417V30.887C48.1192 30.5337 48.0162 30.2408 47.8104 30.0084C47.6138 29.7759 47.3658 29.6597 47.0663 29.6597C46.7948 29.6597 46.5515 29.7713 46.3362 29.9944C46.1304 30.2176 46.0274 30.4779 46.0274 30.7755V35.1967C46.0274 35.5035 46.1304 35.7685 46.3362 35.9916C46.5421 36.2055 46.7855 36.3124 47.0663 36.3124C47.3658 36.3124 47.6138 36.2055 47.8104 35.9916C48.0162 35.7778 48.1192 35.5128 48.1192 35.1967V34.5132H47.1365C47.0897 34.5132 47.0663 34.49 47.0663 34.4435V32.8815C47.0663 32.835 47.0897 32.8117 47.1365 32.8117H49.7618C49.7992 32.8117 49.818 32.835 49.818 32.8815V35.1967C49.818 35.7173 49.6916 36.1915 49.4389 36.6192C49.1955 37.0377 48.868 37.3724 48.4562 37.6234C48.0443 37.8745 47.581 38 47.0663 38ZM54.2211 37.8605C54.1837 37.8605 54.1649 37.8373 54.1649 37.7908L54.193 28.2092C54.193 28.172 54.2117 28.1534 54.2491 28.1534H55.9619C55.9994 28.1534 56.0321 28.172 56.0602 28.2092L57.3378 30.0502L58.6154 28.2092C58.6434 28.172 58.6762 28.1534 58.7137 28.1534H60.4404C60.4779 28.1534 60.4967 28.172 60.4967 28.2092L60.5248 37.7908C60.5248 37.8373 60.506 37.8605 60.4686 37.8605H58.8821C58.8447 37.8605 58.8259 37.8373 58.8259 37.7908L58.812 30.6778L57.3378 32.7978L55.8777 30.6778L55.8636 37.7908C55.8636 37.8373 55.845 37.8605 55.8075 37.8605H54.2211ZM61.86 37.7908L63.6008 28.2092C63.6102 28.172 63.6335 28.1534 63.671 28.1534H65.7067C65.7441 28.1534 65.7675 28.172 65.7769 28.2092L67.4476 37.7908C67.4569 37.8373 67.4382 37.8605 67.3914 37.8605H65.8331C65.7956 37.8605 65.7722 37.8373 65.7629 37.7908L65.6085 36.7727H63.6991L63.5447 37.7908C63.5353 37.8373 63.5119 37.8605 63.4745 37.8605H61.9161C61.8786 37.8605 61.86 37.8373 61.86 37.7908ZM63.9799 35.2803H65.3277L64.7521 31.3612L64.6678 30.8452L64.6117 31.3612L63.9799 35.2803ZM69.0868 37.8605C69.0118 37.8605 68.9744 37.828 68.9744 37.7629L68.9604 28.265C68.9604 28.1906 68.9978 28.1534 69.0727 28.1534H70.3362L72.7089 33.6485L72.6387 28.265C72.6387 28.1906 72.6808 28.1534 72.765 28.1534H74.1549C74.2111 28.1534 74.2391 28.1906 74.2391 28.265L74.2532 37.7768C74.2532 37.8326 74.2298 37.8605 74.183 37.8605H72.9475L70.5188 32.728L70.617 37.749C70.617 37.8233 70.5749 37.8605 70.4907 37.8605H69.0868ZM75.6271 37.7908L77.368 28.2092C77.3774 28.172 77.4008 28.1534 77.4382 28.1534H79.4739C79.5114 28.1534 79.5347 28.172 79.5441 28.2092L81.2147 37.7908C81.2241 37.8373 81.2054 37.8605 81.1586 37.8605H79.6002C79.5628 37.8605 79.5394 37.8373 79.53 37.7908L79.3756 36.7727H77.4663L77.3118 37.7908C77.3025 37.8373 77.2791 37.8605 77.2416 37.8605H75.6833C75.6459 37.8605 75.6271 37.8373 75.6271 37.7908ZM77.747 35.2803H79.0948L78.5192 31.3612L78.435 30.8452L78.3788 31.3612L77.747 35.2803ZM84.9952 38C84.4898 38 84.0311 37.8745 83.6193 37.6234C83.2075 37.3724 82.8753 37.0377 82.6225 36.6192C82.3792 36.1915 82.2575 35.7173 82.2575 35.1967V30.7755C82.2575 30.2734 82.3792 29.8131 82.6225 29.3947C82.8753 28.967 83.2075 28.6276 83.6193 28.3766C84.0405 28.1255 84.4991 28 84.9952 28C85.5099 28 85.9732 28.1255 86.385 28.3766C86.8062 28.6183 87.1385 28.9484 87.3818 29.3668C87.6251 29.7852 87.7469 30.2548 87.7469 30.7755V31.417C87.7469 31.4542 87.7234 31.4728 87.6767 31.4728H86.1043C86.0668 31.4728 86.0481 31.4542 86.0481 31.417V30.887C86.0481 30.5337 85.9451 30.2408 85.7392 30.0084C85.5427 29.7759 85.2946 29.6597 84.9952 29.6597C84.7237 29.6597 84.4803 29.7713 84.2651 29.9944C84.0592 30.2176 83.9563 30.4779 83.9563 30.7755V35.1967C83.9563 35.5035 84.0592 35.7685 84.2651 35.9916C84.471 36.2055 84.7144 36.3124 84.9952 36.3124C85.2946 36.3124 85.5427 36.2055 85.7392 35.9916C85.9451 35.7778 86.0481 35.5128 86.0481 35.1967V34.5132H85.0654C85.0185 34.5132 84.9952 34.49 84.9952 34.4435V32.8815C84.9952 32.835 85.0185 32.8117 85.0654 32.8117H87.6907C87.7281 32.8117 87.7469 32.835 87.7469 32.8815V35.1967C87.7469 35.7173 87.6205 36.1915 87.3678 36.6192C87.1244 37.0377 86.7968 37.3724 86.385 37.6234C85.9732 37.8745 85.5099 38 84.9952 38ZM89.4343 37.8605C89.3969 37.8605 89.3781 37.8373 89.3781 37.7908L89.3921 28.2092C89.3921 28.172 89.4109 28.1534 89.4483 28.1534H93.9549C93.9923 28.1534 94.011 28.1767 94.011 28.2232V29.7852C94.011 29.8224 93.9923 29.841 93.9549 29.841H91.0768V32.0167H93.9549C93.9923 32.0167 94.011 32.0353 94.011 32.0725L94.0251 33.6485C94.0251 33.6857 94.0063 33.7043 93.9689 33.7043H91.0768V36.145H93.9689C94.0063 36.145 94.0251 36.1683 94.0251 36.2148V37.8047C94.0251 37.8419 94.0063 37.8605 93.9689 37.8605H89.4343ZM95.9614 37.8605C95.924 37.8605 95.9052 37.8373 95.9052 37.7908L95.9333 28.2092C95.9333 28.172 95.9521 28.1534 95.9895 28.1534H97.7022C97.7397 28.1534 97.7724 28.172 97.8005 28.2092L99.0781 30.0502L100.356 28.2092C100.384 28.172 100.417 28.1534 100.454 28.1534H102.181C102.218 28.1534 102.237 28.172 102.237 28.2092L102.265 37.7908C102.265 37.8373 102.246 37.8605 102.209 37.8605H100.622C100.585 37.8605 100.566 37.8373 100.566 37.7908L100.552 30.6778L99.0781 32.7978L97.618 30.6778L97.604 37.7908C97.604 37.8373 97.5852 37.8605 97.5478 37.8605H95.9614ZM104.134 37.8605C104.096 37.8605 104.078 37.8373 104.078 37.7908L104.092 28.2092C104.092 28.172 104.11 28.1534 104.148 28.1534H108.655C108.692 28.1534 108.711 28.1767 108.711 28.2232V29.7852C108.711 29.8224 108.692 29.841 108.655 29.841H105.777V32.0167H108.655C108.692 32.0167 108.711 32.0353 108.711 32.0725L108.725 33.6485C108.725 33.6857 108.706 33.7043 108.669 33.7043H105.777V36.145H108.669C108.706 36.145 108.725 36.1683 108.725 36.2148V37.8047C108.725 37.8419 108.706 37.8605 108.669 37.8605H104.134ZM110.732 37.8605C110.656 37.8605 110.619 37.828 110.619 37.7629L110.605 28.265C110.605 28.1906 110.642 28.1534 110.717 28.1534H111.981L114.354 33.6485L114.283 28.265C114.283 28.1906 114.326 28.1534 114.41 28.1534H115.8C115.856 28.1534 115.884 28.1906 115.884 28.265L115.898 37.7768C115.898 37.8326 115.874 37.8605 115.828 37.8605H114.592L112.164 32.728L112.262 37.749C112.262 37.8233 112.22 37.8605 112.135 37.8605H110.732ZM119.153 37.8605C119.115 37.8605 119.097 37.8373 119.097 37.7908V29.841H117.272C117.225 29.841 117.202 29.8178 117.202 29.7713L117.216 28.2092C117.216 28.172 117.234 28.1534 117.272 28.1534H122.607C122.653 28.1534 122.677 28.172 122.677 28.2092V29.7713C122.677 29.8178 122.658 29.841 122.621 29.841H120.782L120.796 37.7908C120.796 37.8373 120.777 37.8605 120.739 37.8605H119.153ZM129.104 38C128.598 38 128.135 37.8745 127.714 37.6234C127.303 37.3631 126.97 37.0237 126.717 36.6053C126.474 36.1776 126.352 35.708 126.352 35.1967V34.5551C126.352 34.5086 126.376 34.4854 126.422 34.4854H127.995C128.033 34.4854 128.051 34.5086 128.051 34.5551V35.1967C128.051 35.5035 128.154 35.7685 128.36 35.9916C128.566 36.2055 128.814 36.3124 129.104 36.3124C129.395 36.3124 129.642 36.2008 129.848 35.9777C130.054 35.7545 130.157 35.4942 130.157 35.1967C130.157 34.8526 129.932 34.5551 129.483 34.304C129.333 34.2204 129.1 34.0902 128.781 33.9135C128.463 33.7369 128.163 33.5695 127.882 33.4114C127.368 33.1139 126.984 32.742 126.731 32.2957C126.489 31.8401 126.366 31.3287 126.366 30.7615C126.366 30.2408 126.493 29.7759 126.745 29.3668C126.998 28.9484 127.331 28.6183 127.742 28.3766C128.163 28.1348 128.617 28.0139 129.104 28.0139C129.6 28.0139 130.054 28.1395 130.466 28.3905C130.887 28.6323 131.22 28.9623 131.462 29.3808C131.715 29.7899 131.841 30.2501 131.841 30.7615V31.9052C131.841 31.9423 131.823 31.9609 131.785 31.9609H130.213C130.176 31.9609 130.157 31.9423 130.157 31.9052L130.143 30.7615C130.143 30.4361 130.04 30.1711 129.834 29.9665C129.628 29.762 129.385 29.6597 129.104 29.6597C128.814 29.6597 128.566 29.7713 128.36 29.9944C128.154 30.2083 128.051 30.464 128.051 30.7615C128.051 31.0683 128.117 31.324 128.247 31.5286C128.379 31.7331 128.617 31.9284 128.963 32.1144C129.011 32.1423 129.1 32.1934 129.23 32.2678C129.371 32.3329 129.521 32.4119 129.679 32.5049C129.839 32.5886 129.979 32.663 130.101 32.728C130.232 32.7931 130.311 32.835 130.339 32.8536C130.808 33.1139 131.178 33.4347 131.448 33.8159C131.72 34.1878 131.855 34.6481 131.855 35.1967C131.855 35.7266 131.729 36.2055 131.476 36.6332C131.234 37.0516 130.901 37.3863 130.48 37.6374C130.068 37.8792 129.609 38 129.104 38ZM134.495 37.8605C134.467 37.8605 134.453 37.8419 134.453 37.8047L134.467 33.8438L132.586 28.2092C132.577 28.172 132.591 28.1534 132.628 28.1534H134.186C134.233 28.1534 134.261 28.172 134.27 28.2092L135.309 31.9609L136.362 28.2092C136.372 28.172 136.395 28.1534 136.432 28.1534H138.005C138.043 28.1534 138.057 28.172 138.047 28.2092L136.151 33.788L136.166 37.8047C136.166 37.8419 136.147 37.8605 136.109 37.8605H134.495ZM141.569 38C141.063 38 140.6 37.8745 140.179 37.6234C139.768 37.3631 139.435 37.0237 139.182 36.6053C138.939 36.1776 138.817 35.708 138.817 35.1967V34.5551C138.817 34.5086 138.841 34.4854 138.887 34.4854H140.46C140.498 34.4854 140.516 34.5086 140.516 34.5551V35.1967C140.516 35.5035 140.619 35.7685 140.825 35.9916C141.031 36.2055 141.279 36.3124 141.569 36.3124C141.859 36.3124 142.107 36.2008 142.313 35.9777C142.519 35.7545 142.622 35.4942 142.622 35.1967C142.622 34.8526 142.397 34.5551 141.948 34.304C141.798 34.2204 141.565 34.0902 141.246 33.9135C140.928 33.7369 140.628 33.5695 140.347 33.4114C139.833 33.1139 139.449 32.742 139.196 32.2957C138.953 31.8401 138.831 31.3287 138.831 30.7615C138.831 30.2408 138.957 29.7759 139.21 29.3668C139.463 28.9484 139.796 28.6183 140.207 28.3766C140.628 28.1348 141.082 28.0139 141.569 28.0139C142.065 28.0139 142.519 28.1395 142.93 28.3905C143.352 28.6323 143.685 28.9623 143.927 29.3808C144.18 29.7899 144.306 30.2501 144.306 30.7615V31.9052C144.306 31.9423 144.288 31.9609 144.25 31.9609H142.678C142.641 31.9609 142.622 31.9423 142.622 31.9052L142.607 30.7615C142.607 30.4361 142.505 30.1711 142.299 29.9665C142.093 29.762 141.849 29.6597 141.569 29.6597C141.279 29.6597 141.031 29.7713 140.825 29.9944C140.619 30.2083 140.516 30.464 140.516 30.7615C140.516 31.0683 140.582 31.324 140.712 31.5286C140.844 31.7331 141.082 31.9284 141.428 32.1144C141.475 32.1423 141.565 32.1934 141.695 32.2678C141.835 32.3329 141.986 32.4119 142.144 32.5049C142.304 32.5886 142.444 32.663 142.565 32.728C142.697 32.7931 142.776 32.835 142.804 32.8536C143.272 33.1139 143.642 33.4347 143.913 33.8159C144.185 34.1878 144.32 34.6481 144.32 35.1967C144.32 35.7266 144.194 36.2055 143.941 36.6332C143.699 37.0516 143.366 37.3863 142.944 37.6374C142.533 37.8792 142.074 38 141.569 38ZM147.263 37.8605C147.226 37.8605 147.207 37.8373 147.207 37.7908V29.841H145.382C145.336 29.841 145.312 29.8178 145.312 29.7713L145.326 28.2092C145.326 28.172 145.345 28.1534 145.382 28.1534H150.717C150.764 28.1534 150.787 28.172 150.787 28.2092V29.7713C150.787 29.8178 150.769 29.841 150.731 29.841H148.892L148.906 37.7908C148.906 37.8373 148.888 37.8605 148.85 37.8605H147.263ZM152.169 37.8605C152.132 37.8605 152.113 37.8373 152.113 37.7908L152.127 28.2092C152.127 28.172 152.146 28.1534 152.183 28.1534H156.69C156.727 28.1534 156.746 28.1767 156.746 28.2232V29.7852C156.746 29.8224 156.727 29.841 156.69 29.841H153.812V32.0167H156.69C156.727 32.0167 156.746 32.0353 156.746 32.0725L156.76 33.6485C156.76 33.6857 156.741 33.7043 156.704 33.7043H153.812V36.145H156.704C156.741 36.145 156.76 36.1683 156.76 36.2148V37.8047C156.76 37.8419 156.741 37.8605 156.704 37.8605H152.169ZM158.696 37.8605C158.659 37.8605 158.64 37.8373 158.64 37.7908L158.668 28.2092C158.668 28.172 158.687 28.1534 158.724 28.1534H160.437C160.474 28.1534 160.507 28.172 160.536 28.2092L161.813 30.0502L163.091 28.2092C163.119 28.172 163.152 28.1534 163.189 28.1534H164.916C164.953 28.1534 164.972 28.172 164.972 28.2092L165 37.7908C165 37.8373 164.981 37.8605 164.944 37.8605H163.357C163.32 37.8605 163.301 37.8373 163.301 37.7908L163.287 30.6778L161.813 32.7978L160.353 30.6778L160.339 37.7908C160.339 37.8373 160.32 37.8605 160.283 37.8605H158.696Z" fill="black"/>
<path d="M118.636 6.29293L139.959 21.4806C139.959 21.4806 143.398 14.5771 141.335 9.97475C139.271 5.37242 136.52 1.92073 129.641 1.46049C122.763 1.00026 118.636 6.29293 118.636 6.29293Z" fill="url(#paint0_linear_424_51)"/>
<path d="M142.955 19.0807C142.955 19.0807 145.266 22.1328 144.179 23.6288C143.945 23.9509 142.724 24.3448 142.724 24.3448C142.724 24.3448 117.176 7.16047 113.526 3.5804C110.606 2.14838 111.336 4.29642 111.336 4.29642C118.636 10.7406 130.521 19.6863 142.955 27.021C143.432 27.3024 144.379 27.768 144.914 27.9249C146.038 28.2549 146.308 28.062 147.099 27.2089C148.058 26.1744 147.473 24.9779 147.099 23.6288C146.461 21.3302 142.955 19.0807 142.955 19.0807Z" fill="url(#paint1_linear_424_51)"/>
<path d="M118.636 3.58007L112.067 2.86406C109.147 2.86406 110.607 4.29609 110.607 4.29609C110.607 4.29609 123.016 16.4683 143.45 27.9246C143.45 27.9246 139.8 27.9246 135.42 25.7765C131.041 23.6285 117.904 13.6043 117.904 13.6043C117.904 13.6043 106.844 3.83246 106.958 2.48648C107.039 1.52859 106.932 1.13424 107.788 0.554689C108.725 -0.0794061 109.787 -0.0781804 110.943 0.108789C112.553 0.369349 118.636 3.58007 118.636 3.58007Z" fill="url(#paint2_linear_424_51)"/>
<path d="M115.74 12.8887L133.234 25.74C133.234 25.74 124.666 26.3594 119.905 22.5271C115.145 18.6949 115.74 12.8887 115.74 12.8887Z" fill="url(#paint3_linear_424_51)"/>
<path d="M15.6392 3H20.5799V24.2117H15.6392V3ZM5.94071 24.2117H1V3H5.94071V24.2117ZM16.0051 15.5149H5.57473V11.3635H16.0051V15.5149ZM23.5194 24.2117L33.0347 3H37.9145L47.4604 24.2117H42.2757L34.4682 5.4848H36.42L28.5821 24.2117H23.5194ZM28.2771 19.6663L29.5886 15.9391H40.5678L41.9097 19.6663H28.2771ZM50.2917 24.2117V3H60.2341C62.7146 3 64.6462 3.47474 66.0288 4.42421C67.4114 5.37369 68.1027 6.7272 68.1027 8.48474C68.1027 10.2221 67.452 11.5756 66.1508 12.5453C64.8495 13.4947 63.1213 13.9695 60.9661 13.9695L61.5455 12.6968C63.9447 12.6968 65.8051 13.1715 67.1267 14.121C68.4483 15.0705 69.1091 16.4442 69.1091 18.2421C69.1091 20.1007 68.3975 21.5653 66.9742 22.636C65.5713 23.6865 63.5178 24.2117 60.8136 24.2117H50.2917ZM55.2019 20.5754H60.6306C61.7692 20.5754 62.6333 20.3532 63.2229 19.9088C63.8126 19.4643 64.1074 18.7775 64.1074 17.8482C64.1074 16.9593 63.8126 16.3028 63.2229 15.8785C62.6333 15.4341 61.7692 15.2119 60.6306 15.2119H55.2019V20.5754ZM55.2019 11.7877H59.8071C60.8847 11.7877 61.698 11.5756 62.247 11.1514C62.796 10.7069 63.0704 10.0605 63.0704 9.212C63.0704 8.36353 62.796 7.72718 62.247 7.30295C61.698 6.85851 60.8847 6.63629 59.8071 6.63629H55.2019V11.7877ZM73.0164 24.2117V3H77.9266V16.8179L88.113 3H92.7488V24.2117H87.869V10.4241L77.6826 24.2117H73.0164ZM111.88 24.2117L105.231 13.9998L109.227 11.6059L117.492 24.2117H111.88ZM98.0034 24.2117V3H102.914V24.2117H98.0034ZM101.48 15.6664V11.5756H108.922V15.6664H101.48ZM109.684 14.1513L105.14 13.6059L112.063 3H117.278L109.684 14.1513ZM160.03 3H164.97V24.2117H160.03V3ZM150.331 24.2117H145.39V3H150.331V24.2117ZM160.396 15.5149H149.965V11.3635H160.396V15.5149Z" fill="black"/>
<defs>
<linearGradient id="paint0_linear_424_51" x1="143.857" y1="19.4089" x2="116.962" y2="-0.51758" gradientUnits="userSpaceOnUse">
<stop stop-color="#49B8F7"/>
<stop offset="1" stop-color="#1273A9"/>
</linearGradient>
<linearGradient id="paint1_linear_424_51" x1="98.3336" y1="0.119924" x2="146.509" y2="41.9508" gradientUnits="userSpaceOnUse">
<stop stop-color="#006EAB"/>
<stop offset="1" stop-color="#86D3FE"/>
</linearGradient>
<linearGradient id="paint2_linear_424_51" x1="99.819" y1="-4.64644" x2="143.26" y2="42.2315" gradientUnits="userSpaceOnUse">
<stop stop-color="#1670A2"/>
<stop offset="1" stop-color="#90D6FD"/>
</linearGradient>
<linearGradient id="paint3_linear_424_51" x1="79.6789" y1="-18.4632" x2="162.476" y2="50.7641" gradientUnits="userSpaceOnUse">
<stop stop-color="#005C8F"/>
<stop offset="1" stop-color="#6FC5F5"/>
</linearGradient>
</defs>
</svg>
