<svg width="166" height="45" viewBox="0 0 166 45" fill="none" xmlns="http://www.w3.org/2000/svg">
<path d="M119.636 6.29293L140.959 21.4806C140.959 21.4806 144.398 14.5771 142.335 9.97475C140.271 5.37242 137.52 1.92073 130.641 1.46049C123.763 1.00026 119.636 6.29293 119.636 6.29293Z" fill="url(#paint0_linear_424_51)"/>
<path d="M143.955 19.0807C143.955 19.0807 146.266 22.1328 145.179 23.6288C144.945 23.9509 143.724 24.3448 143.724 24.3448C143.724 24.3448 118.176 7.16047 114.526 3.5804C111.606 2.14838 112.336 4.29642 112.336 4.29642C119.636 10.7406 131.521 19.6863 143.955 27.021C144.432 27.3024 145.379 27.768 145.914 27.9249C147.038 28.2549 147.309 28.062 148.099 27.2089C149.058 26.1744 148.473 24.9779 148.099 23.6288C147.462 21.3302 143.955 19.0807 143.955 19.0807Z" fill="url(#paint1_linear_424_51)"/>
<path d="M119.636 3.58007L113.067 2.86406C110.147 2.86406 111.607 4.29609 111.607 4.29609C111.607 4.29609 124.016 16.4683 144.45 27.9246C144.45 27.9246 140.8 27.9246 136.42 25.7765C132.041 23.6285 118.904 13.6043 118.904 13.6043C118.904 13.6043 107.844 3.83246 107.958 2.48648C108.039 1.52859 107.932 1.13424 108.788 0.554689C109.725 -0.0794061 110.787 -0.0781804 111.943 0.108789C113.553 0.369349 119.636 3.58007 119.636 3.58007Z" fill="url(#paint2_linear_424_51)"/>
<path d="M116.74 12.8887L134.235 25.74C134.235 25.74 125.666 26.3594 120.905 22.5271C116.145 18.6949 116.74 12.8887 116.74 12.8887Z" fill="url(#paint3_linear_424_51)"/>
<path d="M15.6511 2.49365H20.5918V23.7054H15.6511V2.49365ZM5.95261 23.7054H1.0119V2.49365H5.95261V23.7054ZM16.017 15.0086H5.58663V10.8571H16.017V15.0086ZM23.5313 23.7054L33.0466 2.49365H37.9264L47.4723 23.7054H42.2876L34.4801 4.97845H36.4319L28.594 23.7054H23.5313ZM28.289 19.16L29.6005 15.4328H40.5797L41.9216 19.16H28.289ZM50.3036 23.7054V2.49365H60.246C62.7265 2.49365 64.6581 2.96839 66.0407 3.91786C67.4233 4.86734 68.1146 6.22085 68.1146 7.9784C68.1146 9.71574 67.4639 11.0692 66.1627 12.0389C64.8614 12.9884 63.1332 13.4631 60.978 13.4631L61.5574 12.1904C63.9566 12.1904 65.817 12.6652 67.1386 13.6147C68.4602 14.5641 69.121 15.9378 69.121 17.7358C69.121 19.5943 68.4094 21.059 66.9861 22.1296C65.5832 23.1801 63.5297 23.7054 60.8255 23.7054H50.3036ZM55.2138 20.0691H60.6425C61.7811 20.0691 62.6452 19.8469 63.2348 19.4024C63.8245 18.958 64.1193 18.2711 64.1193 17.3419C64.1193 16.453 63.8245 15.7964 63.2348 15.3722C62.6452 14.9278 61.7811 14.7055 60.6425 14.7055H55.2138V20.0691ZM55.2138 11.2814H59.819C60.8966 11.2814 61.7099 11.0692 62.2589 10.645C62.8079 10.2006 63.0823 9.55412 63.0823 8.70565C63.0823 7.85719 62.8079 7.22083 62.2589 6.7966C61.7099 6.35216 60.8966 6.12995 59.819 6.12995H55.2138V11.2814ZM73.0283 23.7054V2.49365H77.9385V16.3116L88.1249 2.49365H92.7607V23.7054H87.8809V9.91775L77.6945 23.7054H73.0283ZM111.892 23.7054L105.243 13.4934L109.239 11.0995L117.504 23.7054H111.892ZM98.0153 23.7054V2.49365H102.925V23.7054H98.0153ZM101.492 15.1601V11.0692H108.934V15.1601H101.492ZM109.696 13.645L105.152 13.0995L112.075 2.49365H117.29L109.696 13.645ZM160.041 2.49365H164.982V23.7054H160.041V2.49365ZM150.343 23.7054H145.402V2.49365H150.343V23.7054ZM160.407 15.0086H149.977V10.8571H160.407V15.0086Z" fill="black"/>
<path d="M0.757602 41C0.720268 41 0.701602 40.9767 0.701602 40.93L0.715602 31.326C0.715602 31.2793 0.738935 31.256 0.785602 31.256H2.3396C2.38627 31.256 2.4096 31.2793 2.4096 31.326L2.3956 39.278H5.2796C5.32627 39.278 5.3496 39.3013 5.3496 39.348V40.93C5.3496 40.9767 5.32627 41 5.2796 41H0.757602ZM6.95205 41C6.91472 41 6.89605 40.9767 6.89605 40.93L6.91005 31.312C6.91005 31.2747 6.92872 31.256 6.96605 31.256H11.4601C11.4974 31.256 11.5161 31.2793 11.5161 31.326V32.894C11.5161 32.9313 11.4974 32.95 11.4601 32.95H8.59005V35.134H11.4601C11.4974 35.134 11.5161 35.1527 11.5161 35.19L11.5301 36.772C11.5301 36.8093 11.5114 36.828 11.4741 36.828H8.59005V39.278H11.4741C11.5114 39.278 11.5301 39.3013 11.5301 39.348V40.944C11.5301 40.9813 11.5114 41 11.4741 41H6.95205ZM12.7922 40.93L14.5282 31.312C14.5376 31.2747 14.5609 31.256 14.5982 31.256H16.6282C16.6656 31.256 16.6889 31.2747 16.6982 31.312L18.3642 40.93C18.3736 40.9767 18.3549 41 18.3082 41H16.7542C16.7169 41 16.6936 40.9767 16.6842 40.93L16.5302 39.908H14.6262L14.4722 40.93C14.4629 40.9767 14.4396 41 14.4022 41H12.8482C12.8109 41 12.7922 40.9767 12.7922 40.93ZM14.9062 38.41H16.2502L15.6762 34.476L15.5922 33.958L15.5362 34.476L14.9062 38.41ZM19.9289 41C19.8915 41 19.8729 40.9767 19.8729 40.93L19.9009 31.312C19.9009 31.2747 19.9195 31.256 19.9569 31.256H22.7849C23.2889 31.256 23.7509 31.382 24.1709 31.634C24.6002 31.8767 24.9409 32.208 25.1929 32.628C25.4449 33.0387 25.5709 33.5053 25.5709 34.028C25.5709 34.3733 25.5195 34.686 25.4169 34.966C25.3142 35.2367 25.1929 35.47 25.0529 35.666C24.9129 35.8527 24.7869 35.9927 24.6749 36.086C25.1789 36.646 25.4309 37.304 25.4309 38.06L25.4449 40.93C25.4449 40.9767 25.4215 41 25.3749 41H23.7929C23.7555 41 23.7369 40.986 23.7369 40.958V38.06C23.7369 37.724 23.6155 37.4347 23.3729 37.192C23.1395 36.94 22.8502 36.814 22.5049 36.814H21.5809L21.5669 40.93C21.5669 40.9767 21.5482 41 21.5109 41H19.9289ZM21.5809 35.134H22.7849C23.0742 35.134 23.3309 35.0267 23.5549 34.812C23.7789 34.5973 23.8909 34.336 23.8909 34.028C23.8909 33.7293 23.7789 33.4727 23.5549 33.258C23.3402 33.0433 23.0835 32.936 22.7849 32.936H21.5809V35.134ZM27.3828 41C27.3081 41 27.2708 40.9673 27.2708 40.902L27.2568 31.368C27.2568 31.2933 27.2941 31.256 27.3688 31.256H28.6288L30.9948 36.772L30.9248 31.368C30.9248 31.2933 30.9668 31.256 31.0508 31.256H32.4368C32.4928 31.256 32.5208 31.2933 32.5208 31.368L32.5348 40.916C32.5348 40.972 32.5114 41 32.4648 41H31.2328L28.8108 35.848L28.9088 40.888C28.9088 40.9627 28.8668 41 28.7828 41H27.3828ZM34.4509 41C34.4042 41 34.3809 40.9767 34.3809 40.93L34.3949 31.312C34.3949 31.2747 34.4136 31.256 34.4509 31.256H36.0189C36.0562 31.256 36.0749 31.2747 36.0749 31.312L36.0889 40.93C36.0889 40.9767 36.0702 41 36.0329 41H34.4509ZM38.0764 41C38.0017 41 37.9644 40.9673 37.9644 40.902L37.9504 31.368C37.9504 31.2933 37.9877 31.256 38.0624 31.256H39.3224L41.6884 36.772L41.6184 31.368C41.6184 31.2933 41.6604 31.256 41.7444 31.256H43.1304C43.1864 31.256 43.2144 31.2933 43.2144 31.368L43.2284 40.916C43.2284 40.972 43.205 41 43.1584 41H41.9264L39.5044 35.848L39.6024 40.888C39.6024 40.9627 39.5604 41 39.4764 41H38.0764ZM47.6365 41.14C47.1325 41.14 46.6752 41.014 46.2645 40.762C45.8538 40.51 45.5225 40.174 45.2705 39.754C45.0278 39.3247 44.9065 38.8487 44.9065 38.326V33.888C44.9065 33.384 45.0278 32.922 45.2705 32.502C45.5225 32.0727 45.8538 31.732 46.2645 31.48C46.6845 31.228 47.1418 31.102 47.6365 31.102C48.1498 31.102 48.6118 31.228 49.0225 31.48C49.4425 31.7227 49.7738 32.054 50.0165 32.474C50.2592 32.894 50.3805 33.3653 50.3805 33.888V34.532C50.3805 34.5693 50.3572 34.588 50.3105 34.588H48.7425C48.7052 34.588 48.6865 34.5693 48.6865 34.532V34C48.6865 33.6453 48.5838 33.3513 48.3785 33.118C48.1825 32.8847 47.9352 32.768 47.6365 32.768C47.3658 32.768 47.1232 32.88 46.9085 33.104C46.7032 33.328 46.6005 33.5893 46.6005 33.888V38.326C46.6005 38.634 46.7032 38.9 46.9085 39.124C47.1138 39.3387 47.3565 39.446 47.6365 39.446C47.9352 39.446 48.1825 39.3387 48.3785 39.124C48.5838 38.9093 48.6865 38.6433 48.6865 38.326V37.64H47.7065C47.6598 37.64 47.6365 37.6167 47.6365 37.57V36.002C47.6365 35.9553 47.6598 35.932 47.7065 35.932H50.3245C50.3618 35.932 50.3805 35.9553 50.3805 36.002V38.326C50.3805 38.8487 50.2545 39.3247 50.0025 39.754C49.7598 40.174 49.4332 40.51 49.0225 40.762C48.6118 41.014 48.1498 41.14 47.6365 41.14ZM54.7713 41C54.734 41 54.7153 40.9767 54.7153 40.93L54.7433 31.312C54.7433 31.2747 54.762 31.256 54.7993 31.256H56.5073C56.5447 31.256 56.5773 31.2747 56.6053 31.312L57.8793 33.16L59.1534 31.312C59.1813 31.2747 59.214 31.256 59.2514 31.256H60.9733C61.0107 31.256 61.0294 31.2747 61.0294 31.312L61.0574 40.93C61.0574 40.9767 61.0387 41 61.0014 41H59.4193C59.382 41 59.3633 40.9767 59.3633 40.93L59.3494 33.79L57.8793 35.918L56.4233 33.79L56.4093 40.93C56.4093 40.9767 56.3907 41 56.3533 41H54.7713ZM62.3889 40.93L64.1249 31.312C64.1342 31.2747 64.1575 31.256 64.1949 31.256H66.2249C66.2622 31.256 66.2855 31.2747 66.2949 31.312L67.9609 40.93C67.9702 40.9767 67.9515 41 67.9049 41H66.3509C66.3135 41 66.2902 40.9767 66.2809 40.93L66.1269 39.908H64.2229L64.0689 40.93C64.0595 40.9767 64.0362 41 63.9989 41H62.4449C62.4075 41 62.3889 40.9767 62.3889 40.93ZM64.5029 38.41H65.8469L65.2729 34.476L65.1889 33.958L65.1329 34.476L64.5029 38.41ZM69.5955 41C69.5208 41 69.4835 40.9673 69.4835 40.902L69.4695 31.368C69.4695 31.2933 69.5068 31.256 69.5815 31.256H70.8415L73.2075 36.772L73.1375 31.368C73.1375 31.2933 73.1795 31.256 73.2635 31.256H74.6495C74.7055 31.256 74.7335 31.2933 74.7335 31.368L74.7475 40.916C74.7475 40.972 74.7242 41 74.6775 41H73.4455L71.0235 35.848L71.1215 40.888C71.1215 40.9627 71.0795 41 70.9955 41H69.5955ZM76.1176 40.93L77.8536 31.312C77.863 31.2747 77.8863 31.256 77.9236 31.256H79.9536C79.991 31.256 80.0143 31.2747 80.0236 31.312L81.6896 40.93C81.699 40.9767 81.6803 41 81.6336 41H80.0796C80.0423 41 80.019 40.9767 80.0096 40.93L79.8556 39.908H77.9516L77.7976 40.93C77.7883 40.9767 77.765 41 77.7276 41H76.1736C76.1363 41 76.1176 40.9767 76.1176 40.93ZM78.2316 38.41H79.5756L79.0016 34.476L78.9176 33.958L78.8616 34.476L78.2316 38.41ZM85.4595 41.14C84.9555 41.14 84.4981 41.014 84.0875 40.762C83.6768 40.51 83.3455 40.174 83.0935 39.754C82.8508 39.3247 82.7295 38.8487 82.7295 38.326V33.888C82.7295 33.384 82.8508 32.922 83.0935 32.502C83.3455 32.0727 83.6768 31.732 84.0875 31.48C84.5075 31.228 84.9648 31.102 85.4595 31.102C85.9728 31.102 86.4348 31.228 86.8455 31.48C87.2655 31.7227 87.5968 32.054 87.8395 32.474C88.0821 32.894 88.2035 33.3653 88.2035 33.888V34.532C88.2035 34.5693 88.1801 34.588 88.1335 34.588H86.5655C86.5281 34.588 86.5095 34.5693 86.5095 34.532V34C86.5095 33.6453 86.4068 33.3513 86.2015 33.118C86.0055 32.8847 85.7581 32.768 85.4595 32.768C85.1888 32.768 84.9461 32.88 84.7315 33.104C84.5261 33.328 84.4235 33.5893 84.4235 33.888V38.326C84.4235 38.634 84.5261 38.9 84.7315 39.124C84.9368 39.3387 85.1795 39.446 85.4595 39.446C85.7581 39.446 86.0055 39.3387 86.2015 39.124C86.4068 38.9093 86.5095 38.6433 86.5095 38.326V37.64H85.5295C85.4828 37.64 85.4595 37.6167 85.4595 37.57V36.002C85.4595 35.9553 85.4828 35.932 85.5295 35.932H88.1475C88.1848 35.932 88.2035 35.9553 88.2035 36.002V38.326C88.2035 38.8487 88.0775 39.3247 87.8255 39.754C87.5828 40.174 87.2561 40.51 86.8455 40.762C86.4348 41.014 85.9728 41.14 85.4595 41.14ZM89.8862 41C89.8489 41 89.8302 40.9767 89.8302 40.93L89.8442 31.312C89.8442 31.2747 89.8629 31.256 89.9002 31.256H94.3942C94.4315 31.256 94.4502 31.2793 94.4502 31.326V32.894C94.4502 32.9313 94.4315 32.95 94.3942 32.95H91.5242V35.134H94.3942C94.4315 35.134 94.4502 35.1527 94.4502 35.19L94.4642 36.772C94.4642 36.8093 94.4455 36.828 94.4082 36.828H91.5242V39.278H94.4082C94.4455 39.278 94.4642 39.3013 94.4642 39.348V40.944C94.4642 40.9813 94.4455 41 94.4082 41H89.8862ZM96.3951 41C96.3578 41 96.3391 40.9767 96.3391 40.93L96.3671 31.312C96.3671 31.2747 96.3858 31.256 96.4231 31.256H98.1311C98.1684 31.256 98.2011 31.2747 98.2291 31.312L99.5031 33.16L100.777 31.312C100.805 31.2747 100.838 31.256 100.875 31.256H102.597C102.634 31.256 102.653 31.2747 102.653 31.312L102.681 40.93C102.681 40.9767 102.662 41 102.625 41H101.043C101.006 41 100.987 40.9767 100.987 40.93L100.973 33.79L99.5031 35.918L98.0471 33.79L98.0331 40.93C98.0331 40.9767 98.0144 41 97.9771 41H96.3951ZM104.545 41C104.507 41 104.489 40.9767 104.489 40.93L104.503 31.312C104.503 31.2747 104.521 31.256 104.559 31.256H109.053C109.09 31.256 109.109 31.2793 109.109 31.326V32.894C109.109 32.9313 109.09 32.95 109.053 32.95H106.183V35.134H109.053C109.09 35.134 109.109 35.1527 109.109 35.19L109.123 36.772C109.123 36.8093 109.104 36.828 109.067 36.828H106.183V39.278H109.067C109.104 39.278 109.123 39.3013 109.123 39.348V40.944C109.123 40.9813 109.104 41 109.067 41H104.545ZM111.124 41C111.049 41 111.012 40.9673 111.012 40.902L110.998 31.368C110.998 31.2933 111.035 31.256 111.11 31.256H112.37L114.736 36.772L114.666 31.368C114.666 31.2933 114.708 31.256 114.792 31.256H116.178C116.234 31.256 116.262 31.2933 116.262 31.368L116.276 40.916C116.276 40.972 116.252 41 116.206 41H114.974L112.552 35.848L112.65 40.888C112.65 40.9627 112.608 41 112.524 41H111.124ZM119.522 41C119.484 41 119.466 40.9767 119.466 40.93V32.95H117.646C117.599 32.95 117.576 32.9267 117.576 32.88L117.59 31.312C117.59 31.2747 117.608 31.256 117.646 31.256H122.966C123.012 31.256 123.036 31.2747 123.036 31.312V32.88C123.036 32.9267 123.017 32.95 122.98 32.95H121.146L121.16 40.93C121.16 40.9767 121.141 41 121.104 41H119.522ZM129.445 41.14C128.941 41.14 128.479 41.014 128.059 40.762C127.649 40.5007 127.317 40.16 127.065 39.74C126.823 39.3107 126.701 38.8393 126.701 38.326V37.682C126.701 37.6353 126.725 37.612 126.771 37.612H128.339C128.377 37.612 128.395 37.6353 128.395 37.682V38.326C128.395 38.634 128.498 38.9 128.703 39.124C128.909 39.3387 129.156 39.446 129.445 39.446C129.735 39.446 129.982 39.334 130.187 39.11C130.393 38.886 130.495 38.6247 130.495 38.326C130.495 37.9807 130.271 37.682 129.823 37.43C129.674 37.346 129.441 37.2153 129.123 37.038C128.806 36.8607 128.507 36.6927 128.227 36.534C127.714 36.2353 127.331 35.862 127.079 35.414C126.837 34.9567 126.715 34.4433 126.715 33.874C126.715 33.3513 126.841 32.8847 127.093 32.474C127.345 32.054 127.677 31.7227 128.087 31.48C128.507 31.2373 128.96 31.116 129.445 31.116C129.94 31.116 130.393 31.242 130.803 31.494C131.223 31.7367 131.555 32.068 131.797 32.488C132.049 32.8987 132.175 33.3607 132.175 33.874V35.022C132.175 35.0593 132.157 35.078 132.119 35.078H130.551C130.514 35.078 130.495 35.0593 130.495 35.022L130.481 33.874C130.481 33.5473 130.379 33.2813 130.173 33.076C129.968 32.8707 129.725 32.768 129.445 32.768C129.156 32.768 128.909 32.88 128.703 33.104C128.498 33.3187 128.395 33.5753 128.395 33.874C128.395 34.182 128.461 34.4387 128.591 34.644C128.722 34.8493 128.96 35.0453 129.305 35.232C129.352 35.26 129.441 35.3113 129.571 35.386C129.711 35.4513 129.861 35.5307 130.019 35.624C130.178 35.708 130.318 35.7827 130.439 35.848C130.57 35.9133 130.649 35.9553 130.677 35.974C131.144 36.2353 131.513 36.5573 131.783 36.94C132.054 37.3133 132.189 37.7753 132.189 38.326C132.189 38.858 132.063 39.3387 131.811 39.768C131.569 40.188 131.237 40.524 130.817 40.776C130.407 41.0187 129.949 41.14 129.445 41.14ZM134.821 41C134.793 41 134.779 40.9813 134.779 40.944L134.793 36.968L132.917 31.312C132.908 31.2747 132.922 31.256 132.959 31.256H134.513C134.56 31.256 134.588 31.2747 134.597 31.312L135.633 35.078L136.683 31.312C136.693 31.2747 136.716 31.256 136.753 31.256H138.321C138.359 31.256 138.373 31.2747 138.363 31.312L136.473 36.912L136.487 40.944C136.487 40.9813 136.469 41 136.431 41H134.821ZM141.875 41.14C141.371 41.14 140.909 41.014 140.489 40.762C140.079 40.5007 139.747 40.16 139.495 39.74C139.253 39.3107 139.131 38.8393 139.131 38.326V37.682C139.131 37.6353 139.155 37.612 139.201 37.612H140.769C140.807 37.612 140.825 37.6353 140.825 37.682V38.326C140.825 38.634 140.928 38.9 141.133 39.124C141.339 39.3387 141.586 39.446 141.875 39.446C142.165 39.446 142.412 39.334 142.617 39.11C142.823 38.886 142.925 38.6247 142.925 38.326C142.925 37.9807 142.701 37.682 142.253 37.43C142.104 37.346 141.871 37.2153 141.553 37.038C141.236 36.8607 140.937 36.6927 140.657 36.534C140.144 36.2353 139.761 35.862 139.509 35.414C139.267 34.9567 139.145 34.4433 139.145 33.874C139.145 33.3513 139.271 32.8847 139.523 32.474C139.775 32.054 140.107 31.7227 140.517 31.48C140.937 31.2373 141.39 31.116 141.875 31.116C142.37 31.116 142.823 31.242 143.233 31.494C143.653 31.7367 143.985 32.068 144.227 32.488C144.479 32.8987 144.605 33.3607 144.605 33.874V35.022C144.605 35.0593 144.587 35.078 144.549 35.078H142.981C142.944 35.078 142.925 35.0593 142.925 35.022L142.911 33.874C142.911 33.5473 142.809 33.2813 142.603 33.076C142.398 32.8707 142.155 32.768 141.875 32.768C141.586 32.768 141.339 32.88 141.133 33.104C140.928 33.3187 140.825 33.5753 140.825 33.874C140.825 34.182 140.891 34.4387 141.021 34.644C141.152 34.8493 141.39 35.0453 141.735 35.232C141.782 35.26 141.871 35.3113 142.001 35.386C142.141 35.4513 142.291 35.5307 142.449 35.624C142.608 35.708 142.748 35.7827 142.869 35.848C143 35.9133 143.079 35.9553 143.107 35.974C143.574 36.2353 143.943 36.5573 144.213 36.94C144.484 37.3133 144.619 37.7753 144.619 38.326C144.619 38.858 144.493 39.3387 144.241 39.768C143.999 40.188 143.667 40.524 143.247 40.776C142.837 41.0187 142.379 41.14 141.875 41.14ZM147.554 41C147.517 41 147.498 40.9767 147.498 40.93V32.95H145.678C145.632 32.95 145.608 32.9267 145.608 32.88L145.622 31.312C145.622 31.2747 145.641 31.256 145.678 31.256H150.998C151.045 31.256 151.068 31.2747 151.068 31.312V32.88C151.068 32.9267 151.05 32.95 151.012 32.95H149.178L149.192 40.93C149.192 40.9767 149.174 41 149.136 41H147.554ZM152.446 41C152.409 41 152.39 40.9767 152.39 40.93L152.404 31.312C152.404 31.2747 152.423 31.256 152.46 31.256H156.954C156.991 31.256 157.01 31.2793 157.01 31.326V32.894C157.01 32.9313 156.991 32.95 156.954 32.95H154.084V35.134H156.954C156.991 35.134 157.01 35.1527 157.01 35.19L157.024 36.772C157.024 36.8093 157.005 36.828 156.968 36.828H154.084V39.278H156.968C157.005 39.278 157.024 39.3013 157.024 39.348V40.944C157.024 40.9813 157.005 41 156.968 41H152.446ZM158.955 41C158.918 41 158.899 40.9767 158.899 40.93L158.927 31.312C158.927 31.2747 158.946 31.256 158.983 31.256H160.691C160.728 31.256 160.761 31.2747 160.789 31.312L162.063 33.16L163.337 31.312C163.365 31.2747 163.398 31.256 163.435 31.256H165.157C165.194 31.256 165.213 31.2747 165.213 31.312L165.241 40.93C165.241 40.9767 165.222 41 165.185 41H163.603C163.566 41 163.547 40.9767 163.547 40.93L163.533 33.79L162.063 35.918L160.607 33.79L160.593 40.93C160.593 40.9767 160.574 41 160.537 41H158.955Z" fill="black"/>
<defs>
<linearGradient id="paint0_linear_424_51" x1="144.857" y1="19.4089" x2="117.962" y2="-0.51758" gradientUnits="userSpaceOnUse">
<stop stop-color="#49B8F7"/>
<stop offset="1" stop-color="#1273A9"/>
</linearGradient>
<linearGradient id="paint1_linear_424_51" x1="99.3338" y1="0.119924" x2="147.509" y2="41.9508" gradientUnits="userSpaceOnUse">
<stop stop-color="#006EAB"/>
<stop offset="1" stop-color="#86D3FE"/>
</linearGradient>
<linearGradient id="paint2_linear_424_51" x1="100.819" y1="-4.64644" x2="144.26" y2="42.2315" gradientUnits="userSpaceOnUse">
<stop stop-color="#1670A2"/>
<stop offset="1" stop-color="#90D6FD"/>
</linearGradient>
<linearGradient id="paint3_linear_424_51" x1="80.6789" y1="-18.4632" x2="163.477" y2="50.7641" gradientUnits="userSpaceOnUse">
<stop stop-color="#005C8F"/>
<stop offset="1" stop-color="#6FC5F5"/>
</linearGradient>
</defs>
</svg>
